<?xml version="1.0" encoding="utf-8"?>
<svg viewBox="0 0 500 500" xmlns="http://www.w3.org/2000/svg" xmlns:bx="https://boxy-svg.com">
  <path d="M 207.41 9.057 L 246.42 91.147 L 168.4 91.147 L 207.41 9.057 Z" style="stroke: rgb(0, 0, 0); fill: rgb(255, 185, 0); stroke-width: 0px;" transform="matrix(0.9999999999999999, 0, 0, 0.9999999999999999, 0, 0)" bx:shape="triangle 168.4 9.057 78.02 82.09 0.5 0 1@6bed5df6"/>
  <path d="M 286.006 74.385 L 325.016 156.475 L 246.996 156.475 L 286.006 74.385 Z" style="stroke: rgb(0, 0, 0); fill: rgb(255, 185, 0); stroke-width: 0px; transform-origin: 286.006px 115.43px;" transform="matrix(0, 1, -1, 0, 27.121269226074, 40.91446685791)" bx:shape="triangle 246.996 74.385 78.02 82.09 0.5 0 1@d06522b5"/>
  <path d="M 363.765 -84.319 L 402.775 -2.229 L 324.755 -2.229 L 363.765 -84.319 Z" style="stroke: rgb(0, 0, 0); fill: rgb(255, 185, 0); stroke-width: 0px; transform-origin: 286.006px 115.43px;" transform="matrix(-1, 0, 0, -1, 0, 0)" bx:shape="triangle 324.755 -84.319 78.02 82.09 0.5 0 1@b2b75e0c"/>
  <path d="M 350.356 -73.482 L 389.366 8.608 L 311.346 8.608 L 350.356 -73.482 Z" style="stroke: rgb(0, 0, 0); fill: rgb(255, 185, 0); stroke-width: 0px; transform-origin: 286.006px 115.43px;" transform="matrix(0, -1, 1, 0, -43.34407043457, 108.50740814209)" bx:shape="triangle 311.346 -73.482 78.02 82.09 0.5 0 1@b75fe427"/>
  <path d="M 329.875 18.821 L 368.885 100.911 L 290.865 100.911 L 329.875 18.821 Z" style="stroke: rgb(0, 0, 0); stroke-width: 0px; fill: rgb(255, 249, 4); transform-origin: 329.875px 59.866px;" transform="matrix(0.707107007504, 0.707107007504, -0.707107007504, 0.707107007504, -48.248209420877, 31.035640079813)" bx:shape="triangle 290.865 18.821 78.02 82.09 0.5 0 1@1c6648eb"/>
  <path d="M 286.006 74.385 L 325.016 156.475 L 246.996 156.475 L 286.006 74.385 Z" style="stroke: rgb(0, 0, 0); stroke-width: 0px; fill: rgb(255, 249, 4); transform-origin: 286.006px 115.43px;" transform="matrix(-0.707107007504, 0.707107007504, -0.707107007504, -0.707107007504, -4.750398735499, 125.349479056049)" bx:shape="triangle 246.996 74.385 78.02 82.09 0.5 0 1@d06522b5"/>
  <path d="M 241.3 -94.083 L 280.31 -11.993 L 202.29 -11.993 L 241.3 -94.083 Z" style="stroke: rgb(0, 0, 0); stroke-width: 0px; fill: rgb(255, 249, 4); transform-origin: 286.006px 115.43px;" transform="matrix(-0.707107007504, -0.707107007504, 0.707107007504, -0.707107007504, -74.688837685001, -16.258497992289)" bx:shape="triangle 202.29 -94.083 78.02 82.09 0.5 0 1@af40aa36"/>
  <path d="M 350.356 -73.482 L 389.366 8.608 L 311.346 8.608 L 350.356 -73.482 Z" style="stroke: rgb(0, 0, 0); stroke-width: 0px; fill: rgb(255, 249, 4); transform-origin: 286.006px 115.43px;" transform="matrix(0.707107007504, -0.707107007504, 0.707107007504, 0.707107007504, -102.372564216161, 123.318489693951)" bx:shape="triangle 311.346 -73.482 78.02 82.09 0.5 0 1@b75fe427"/>
  <ellipse style="stroke: rgb(0, 0, 0); fill: rgb(255, 249, 0); paint-order: fill; stroke-width: 6px;" cx="205.179" cy="165.964" rx="83.692" ry="83.692" transform="matrix(0.9999999999999999, 0, 0, 0.9999999999999999, 0, 0)"/>
  <path style="stroke: rgb(0, 0, 0);" d="M 168.182 129.174 C 168.182 136.365 168.182 143.557 168.182 150.748 C 168.182 152.979 167.672 156.84 170.241 158.124 C 174.359 160.183 177.055 150.22 179.153 148.321 C 190.163 138.351 189.247 137.919 177.555 127.313 C 176.017 125.918 174.179 125.96 172.338 125.497 C 170.678 125.079 171.365 135.722 171.365 137.481 C 171.365 142.29 166.075 152.441 172.192 154.571 C 174.36 155.326 175.693 153.118 177.143 151.892 C 185.118 145.15 179.669 143.481 177.959 133.768 C 177.664 132.089 177.623 124.433 175.278 123.717 C 172.35 122.823 171.317 127.332 171.109 129.38 C 170.461 135.746 162.051 157.41 173.237 153.964 C 181.483 151.424 182.229 142.972 182.229 136.184 C 182.229 134.172 181.622 128.776 179.245 128.05 C 175.209 126.818 169.735 128.982 169.735 133.359 C 169.735 135.38 169.158 137.133 169.158 139.108 C 169.158 140.134 169.158 143.213 169.158 142.187 C 169.158 138.865 170.645 133.031 169.425 130.055 C 166.663 123.316 163.022 118.546 163.022 111.238" transform="matrix(0.9999999999999999, 0, 0, 0.9999999999999999, 0, 0)"/>
  <path style="stroke: rgb(0, 0, 0);" d="M 230.824 130.471 C 230.824 134.178 230.824 137.886 230.824 141.594 C 230.824 145.167 230.824 148.739 230.824 152.312 C 230.824 154.745 229.826 159.783 230.824 162.105 C 232.25 165.426 239.1 155.07 239.252 154.8 C 243.009 148.14 244.618 142.792 246.705 134.927 C 247.138 133.297 249.6 126.52 248.454 124.798 C 247.849 123.889 243.942 124.403 242.844 124.22 C 234.624 122.85 234.901 134.024 234.901 140.104 C 234.901 141.069 233.629 145.956 234.829 146.738 C 242.14 151.504 251.061 140.509 247.37 133.129 C 245.037 128.464 236.553 129.447 234.872 133.9 C 234.143 135.831 233.164 138.135 232.856 140.175 C 232.399 143.199 232.701 146.899 232.701 149.901 C 232.701 151.138 232.701 147.427 232.701 146.19 C 232.701 143.674 231.698 141.455 231.698 139.072 C 231.698 132.483 226.709 121.561 228.113 115.927 C 228.402 114.769 224.203 103.691 224.203 106.779" transform="matrix(0.9999999999999999, 0, 0, 0.9999999999999999, 0, 0)"/>
  <path style="stroke: rgb(0, 0, 0);" d="M 198.621 163.874 C 202.662 163.326 207.074 164.574 210.803 162.703 C 211.385 162.411 216.722 158.928 216.075 158.745 C 212.225 157.655 205.504 158.869 201.536 159.855 C 199.337 160.401 198.972 162.876 196.474 162.876" transform="matrix(0.9999999999999999, 0, 0, 0.9999999999999999, 0, 0)"/>
  <path style="stroke: rgb(0, 0, 0); fill: rgb(255, 255, 255); stroke-width: 0px;" d="M 182.769 180.074 C 190.922 180.074 199.076 180.074 207.229 180.074 C 217.949 180.074 232.565 178.014 242.504 181 C 244.487 181.596 241.804 185.332 241.185 185.929 C 238.185 188.822 233.833 188.873 229.979 188.873 C 226.27 188.873 222.56 188.873 218.851 188.873 C 211.591 188.873 204.089 188.681 196.839 188.194 C 187.28 187.553 178.892 180.553 169.706 180.553 C 168.388 180.553 171.697 178.651 172.974 178.328 C 175.342 177.728 177.795 178.478 180.157 178.478" transform="matrix(0.9999999999999999, 0, 0, 0.9999999999999999, 0, 0)"/>
</svg>