<?xml version="1.0" encoding="UTF-8" standalone="no"?>
<!-- Created with Inkscape (http://www.inkscape.org/) -->

<svg
   width="158.72626mm"
   height="138.67181mm"
   viewBox="0 0 158.72626 138.67181"
   version="1.1"
   id="svg1"
   xmlns="http://www.w3.org/2000/svg"
   xmlns:svg="http://www.w3.org/2000/svg">
  <defs
     id="defs1" />
  <g
     id="layer1"
     transform="translate(-27.386487,-42.388539)">
    <path
       style="fill:#ffbf00;fill-opacity:1;stroke-width:0.264583"
       d="m 93.765084,83.295993 c 1.511763,-7.133275 1.288499,-6.550644 3.874248,-15.457096 5.938938,-20.456311 -1.960594,7.785761 5.263838,-14.686002 0.93228,-2.899905 1.37965,-5.935205 2.17449,-8.875757 0.2562,-0.947854 0.26183,-2.164972 0.68779,-1.832658 3.7542,2.928842 9.03966,14.015257 10.97987,17.894527 5.10627,10.209565 -3.15195,-5.097285 4.97277,9.089663 1.39271,2.431875 2.39679,4.996759 3.6951,7.443827 0.40409,0.761621 0.94157,1.456854 1.53729,2.080125 0.0551,0.05765 0.20353,-0.0713 0.23926,0 0.0713,0.142261 -0.0493,0.326104 0,0.477387 0.12976,0.397754 0.58844,0.622512 0.74394,1.010928 0.17218,0.430107 0.0808,1.845178 0.25255,2.017247 0.38501,0.385699 0.24894,-0.325609 0.24894,0.914342 0,0.08418 0.0526,0.186841 0,0.25255 -0.14162,0.176858 -0.45314,0 -0.67971,0 -0.81498,0 -1.63093,0.03998 -2.44493,0 -2.95013,-0.144896 -5.89204,-0.444921 -8.84369,-0.554442 -18.63945,-0.691616 8.90847,0.979765 -14.11437,-0.277215 -2.34008,-0.127762 -5.011286,-1.13902 -7.383731,-0.526372 -0.511071,0.131974 -0.802436,0.685964 -1.203655,1.028946 z"
       id="path9" />
    <path
       style="fill:#ffbf00;fill-opacity:1;stroke-width:0.264583"
       d="m 142.77111,100.68488 c 6.56357,4.30003 4.76802,3.24571 15.09467,8.81883 3.22694,2.4778 7.27959,3.1792 10.81169,4.99 2.09993,1.07655 4.1552,2.2573 6.09545,3.60047 2.37524,1.64429 4.43303,3.92 6.88926,5.51191 0.77339,0.50125 1.62304,0.87475 2.41576,1.34483 0.54478,0.32306 1.04158,0.72449 1.59457,1.0333 0.12029,0.0672 0.55114,0 0.41335,0 -2.5312,0 -4.95439,0.80293 -7.51589,0.80293 -10.01621,0 1.32857,-1.10202 -13.00197,0 -0.83007,0.0638 -1.61432,0.41862 -2.43678,0.54761 -1.48874,0.17834 -2.97749,0.35668 -4.46623,0.53502 -0.8079,0 -1.62024,-0.0845 -2.42371,0 -4.38851,0.46175 -0.95339,0.35242 -4.0903,1.03294 -2.03841,0.44222 -4.90894,0.43074 -6.9622,0.54691 -2.17103,0.12283 -1.16565,0.0701 -2.78426,-0.25323 -0.583,-0.11647 -1.23509,0.0727 -1.82547,0 -1.19626,-0.1473 -2.48689,-0.54325 -3.6955,-0.54325"
       id="path10" />
    <path
       style="fill:#ffbf00;fill-opacity:1;stroke-width:0.264583"
       d="m 95.468817,145.26003 c 1.456754,6.87871 3.49444,13.67482 6.880223,19.8677 2.4097,4.40754 2.46008,4.00282 4.01683,7.77179 0.7153,1.73175 1.58332,3.69487 2.36021,5.24966 0.29469,0.58978 0.77646,3.32239 1.54968,2.85841 0.36127,-0.21678 0.44394,-0.72478 0.73947,-1.02507 0.13803,-0.14026 0.3894,-0.12397 0.52843,-0.26325 1.19597,-1.19811 1.77225,-2.66137 2.55227,-4.17307 1.62748,-3.15406 3.60858,-6.04098 5.14434,-9.25995 1.31621,-2.75878 2.53691,-5.56289 3.87767,-8.30982 0.507,-1.03873 1.20337,-1.98219 1.66335,-3.04258 2.18128,-5.02841 1.44742,-3.74338 2.44939,-7.31313 0.34733,-1.23742 0.68074,-2.48023 1.09314,-3.69751 0.38375,-1.13275 1.0188,-2.04056 1.0188,-3.26974"
       id="path11" />
    <path
       style="fill:#ffc300;fill-opacity:1;stroke-width:0.264583"
       d="m 69.294795,99.018835 c -5.000379,1.847365 -9.440452,5.217395 -14.573784,6.730845 -0.849448,0.25044 -1.747523,0.29734 -2.60807,0.50649 -1.813763,0.44082 -3.549467,1.16311 -5.286986,1.84508 -2.816995,1.10567 -5.541232,2.28483 -8.506703,2.98605 -1.520434,0.35953 -3.102764,0.52812 -4.588399,1.02861 -0.70154,0.23634 -1.371462,0.56409 -2.080403,0.7772 -1.053293,0.31662 0.04621,-0.42722 -1.005517,0.25255 -0.891802,0.57641 0.490543,-0.23532 -0.168974,0.42424 -0.129235,0.12924 -0.360907,0.11663 -0.490058,0.24595 -0.05765,0.0577 0,0.16318 0,0.24477 -0.164124,0.16413 -0.292949,0.37362 -0.492369,0.4924 -0.590026,0.35144 -1.597916,0.24283 -2.0722,0.77208 -0.165487,0.18466 0.301572,0.80338 0.497795,0.92549 1.907685,1.18709 4.172825,2.47987 6.275146,3.22759 4.212537,1.49824 8.468215,2.87881 12.752255,4.15834 1.908175,0.56992 3.879827,0.90132 5.811385,1.38611 4.000926,1.00418 7.898011,2.18285 11.860528,3.28765 4.466113,1.24522 9.075139,3.73418 13.799851,3.73418"
       id="path12" />
    <path
       style="fill:#ffec00;fill-opacity:1;stroke-width:0.264583"
       d="m 123.43105,83.71744 c 1.20467,-1.329449 2.85989,-3.305709 4.35706,-4.273836 4.26145,-2.755617 6.44374,-3.922773 10.81169,-5.26724 5.18278,-1.595273 3.16876,-0.129725 10.22976,-2.761922 1.15291,-0.429781 2.13462,-1.224378 3.20107,-1.838055 1.68122,-0.967441 3.55,-1.471046 5.17655,-2.539968 2.14294,-1.408277 0.35172,-0.189167 1.50594,-0.758285 0.21278,-0.104918 0.48799,-0.724041 0.51746,-0.488641 0.0942,0.752647 0.0597,1.519399 0,2.275565 -0.88272,11.176963 -0.2081,5.079198 -2.77223,14.908294 -0.52626,2.017297 -0.7682,4.10777 -1.38613,6.098897 -1.68071,5.415611 -3.21353,9.790121 -5.92576,14.307321"
       id="path13" />
    <path
       style="fill:#fff000;fill-opacity:1;stroke-width:0.264583"
       d="M 90.890713,82.135913 C 88.723064,80.24542 86.616108,78.282995 84.387771,76.464429 81.989641,74.507293 79.568767,72.546826 76.920713,70.943945 74.9722,69.764502 72.482024,69.023637 70.695295,67.595056 68.918047,66.174056 67.136888,64.35086 65.715797,62.587335 65.38928,62.182136 64.981375,61.32781 64.44848,61.065676 c -0.06945,-0.03416 -0.02109,0.157719 0,0.232188 0.25191,0.889984 0.532122,1.771849 0.816383,2.652033 1.221613,3.782621 1.94056,7.026709 1.94056,11.057786 0,3.139379 -0.03537,8.611947 -0.823905,11.991226 -0.16587,0.710841 -0.609544,1.335001 -0.790485,2.042158 -0.590624,2.308272 -0.493662,6.110824 0.25255,8.351461"
       id="path14" />
    <path
       style="fill:#fff200;fill-opacity:1;stroke-width:0.264583"
       d="m 73.176566,133.08276 c -4.266303,15.86856 -0.385779,2.77066 -4.907452,15.35113 -0.245134,0.68203 -0.334725,1.41137 -0.547585,2.10415 -0.608303,1.97983 -1.579522,3.80789 -2.330053,5.72557 -0.36962,0.94442 -0.291335,2.1927 -0.523414,3.11073 -0.256162,1.01328 -0.90406,1.88696 -1.282393,2.86125 -0.75801,1.95203 0.134262,-0.29541 -0.25255,1.56047 -0.0037,0.0177 -0.516925,0.9917 -0.51833,1.02261 -0.01077,0.23699 0.478743,0.0449 0.711687,0 0.798923,-0.15392 1.581806,-0.38279 2.37784,-0.55102 3.134029,-0.66234 6.26288,-1.35298 9.411779,-1.94056 7.510253,-1.4014 10.837772,-1.11348 18.851123,-4.43555 1.205526,-0.49977 1.900412,-1.7934 2.772233,-2.76448 1.670719,-1.86094 1.617503,-1.26782 1.617503,-2.38865"
       id="path15" />
    <path
       style="fill:#fff500;fill-opacity:1;stroke-width:0.264583"
       d="m 141.32434,130.79462 c 4.77972,5.97488 9.53144,11.97227 14.33917,17.92464 2.09635,2.59544 3.55862,4.20101 5.7945,6.598 0.0472,0.0506 1.41392,1.57115 1.02515,1.74251 -1.67324,0.73755 -1.99221,0.42055 -3.92157,-0.12388 -4.44673,-1.25479 -8.86421,-2.61134 -13.30668,-3.88112 -1.3238,-0.37839 -7.64075,-1.98253 -8.74794,-2.43964 -1.30613,-0.53925 -3.49716,-2.84497 -4.81049,-3.70602 -1.67143,-1.09582 -3.64413,-1.67993 -5.42026,-2.5755 -1.44595,-0.87665 -0.83672,-0.55522 -1.79061,-1.0315"
       id="path16" />
    <path
       style="fill:#fff701;fill-opacity:1;stroke-width:0.264583"
       d="m 106.47076,79.326591 c -1.862,0 -5.09193,-0.03444 -6.4535,0.277214 -3.557954,0.814398 -14.593106,6.749989 -15.524487,7.207787 -4.096612,2.013591 -8.14411,3.338166 -11.313495,6.89954 -0.852975,0.958472 -1.044173,2.355046 -1.379228,3.593581 -0.86637,3.202557 -1.975668,6.393957 -2.217775,9.702787 -0.582157,7.95623 0.135448,13.15848 2.495021,20.23724 0.510334,1.53101 0.989595,3.13167 1.940531,4.43557 6.099691,8.36374 13.108085,9.75293 23.276374,11.91369 2.815149,0.59822 5.716079,0.86551 8.593889,0.83165 6.31766,-0.0743 20.24489,0.10382 25.76464,-5.81827 5.88086,-6.30953 10.34312,-13.60801 11.91371,-22.15041 0.441,-2.39863 -0.22648,-7.8518 -0.55443,-10.25723 -0.35091,-2.57385 -0.89165,-9.357656 -2.46432,-12.272187 -3.7028,-6.862186 -6.50886,-9.723993 -12.73816,-13.882121 -1.35243,-0.902758 -2.65118,-2.121747 -4.25594,-2.383943 -1.9764,-0.322916 -4.1025,-0.252553 -6.08586,-0.252553 -1.0951,0 -2.20038,-0.149016 -3.28529,0 -1.05356,0.308311 -1.97195,0.633465 -3.05124,0.775951 -2.85126,0.37642 -2.41621,-0.11498 -4.66044,1.141704 z"
       id="path1" />
    <path
       style="fill:#000000;fill-opacity:1;stroke-width:0.264583"
       d="m 94.258192,95.830008 c -0.304218,2.852166 -1.198239,5.605072 0.175787,7.441652 0.07145,0.0955 -0.09552,0.28639 0,0.35779 0.673648,0.50355 -0.411552,-1.33235 0.486545,0.52924 0.479113,0.99311 0.543816,2.43737 1.933255,1.51534 1.197517,-0.79468 0.979768,-0.90968 1.290222,-2.04787 0.476019,-1.74518 1.345035,-3.641398 0.25323,-5.280121 -1.338636,-2.009198 -0.340368,-0.117033 -1.010912,-1.010899 -0.508649,-0.678047 -0.677275,-1.260996 -1.528503,-1.260996 -0.02943,0 -0.371468,-0.01146 -0.374571,0 -0.04258,0.157004 0,0.325348 0,0.488021 -0.168368,0.168368 -0.416671,0.284025 -0.505103,0.505103 -0.0938,0.234487 0.06125,0.512644 0,0.757653 -0.107034,0.428138 -1.067361,1.442585 -1.251101,1.527945"
       id="path2" />
    <path
       style="fill:#000000;fill-opacity:1;stroke-width:0.264583"
       d="m 121.67327,98.687918 c -0.59834,2.635912 -0.50517,1.464752 -0.50517,3.488192 0,0.75526 -0.33385,1.92953 0.25255,2.52551 0.32663,0.33196 0.71733,0.2362 1.12409,0.2362 1.32315,0 1.79644,-0.24168 2.27225,-1.53059 0.49835,-1.34997 1.82298,-6.930575 -0.70225,-6.61397 -0.43065,0.05399 -0.93445,-0.01355 -1.27734,0.252551 -0.53008,0.411355 -0.77609,1.094737 -1.16413,1.642107 z"
       id="path3" />
    <path
       style="fill:#000000;fill-opacity:1;stroke-width:0.264583"
       d="m 94.700343,98.033003 c -1.054838,-0.539584 -1.606309,-1.636409 -2.497704,-2.353286 -1.081069,-0.869416 -1.001911,-0.402043 -1.001911,-1.91488 0,-0.03986 0.133729,-1.800019 0.587169,-0.926134 0.124976,0.240855 0.09768,0.551346 0.253291,0.773639 0.205017,0.292859 2.782459,2.869133 2.811944,3.340581 0.0227,0.362903 -0.10186,0.720053 -0.152789,1.08008 z"
       id="path4" />
    <path
       style="fill:#000000;fill-opacity:1;stroke-width:0.264583"
       d="m 122.51727,98.484231 c -0.57194,-0.453065 -2.3941,-1.582891 -2.00928,-2.62999 0.1554,-0.422825 0.50876,-0.704429 0.6627,-1.115671 0.0993,-0.265166 0.10534,-0.762609 0.25255,-0.986496 0.25318,-0.385025 0.80311,0.545689 0.98653,0.968414 0.51852,1.195009 -0.0109,0.489403 0.50578,2.03866 0.33647,1.008986 0.71936,-0.456126 -0.39828,1.725083 z"
       id="path5" />
    <path
       style="fill:#000000;fill-opacity:1;stroke-width:0.264583"
       d="m 108.05943,109.18076 c -0.0781,0.47828 -0.17607,0.95373 -0.23426,1.43483 -0.11921,0.98549 2.17936,1.24595 2.42793,1.00989 0.39044,-0.37078 0.46252,-2.5562 0.009,-2.88214 -0.60784,-0.43693 -1.47548,0.26007 -2.20276,0.43742 z"
       id="path6" />
    <path
       style="fill:#ffffff;fill-opacity:1;stroke-width:0.264583"
       d="m 100.30872,118.92355 c 7.62974,0 15.25948,0 22.88922,0 1.55468,0 2.31825,0.27126 2.31825,1.95353 0,0.34583 0.0532,1.01812 -0.25255,1.26275 -0.27104,0.21683 -0.66851,0.19157 -1.0102,0.25255 -1.11537,0.19907 -2.2377,0.35706 -3.35787,0.52704 -4.16255,0.63165 -7.79782,0.45578 -12.00453,0.23547 -1.17994,-0.0618 -2.38988,0.25007 -3.54468,0 -0.89221,-0.1932 -1.73414,-0.57961 -2.62321,-0.7868 -0.60282,-0.14049 -1.22353,-0.19317 -1.83959,-0.25323 -0.44924,-0.0438 -1.014024,0.29678 -1.354103,0 -0.08702,-0.0759 0.0296,-0.23486 0,-0.3465 -0.786215,-2.96472 2.957653,-2.975 -0.990629,-2.73903"
       id="path7" />
    <path
       style="fill:#000000;fill-opacity:1;stroke-width:0.264583"
       id="path8"
       d="m 132.16508,83.803248 c -2.83454,-1.523836 -5.7424,-2.89706 -8.6926,-4.180162 -1.92989,-0.786136 -3.85789,-1.625465 -5.87923,-2.156788 -0.44427,-0.11678 -1.6685,-0.364562 -2.14481,-0.463188 -1.71404,-0.288332 -3.4458,-0.459684 -5.17729,-0.60316 -0.84643,-0.02254 -1.70379,-0.148815 -2.5506,-0.05498 -0.50294,0.05573 -0.99818,0.16697 -1.49732,0.250155 -2.13665,0.308044 -4.21447,0.891281 -6.281587,1.497071 -2.072661,0.534368 -4.096924,1.227177 -6.119693,1.921698 -1.964513,0.66685 -3.883829,1.468599 -5.780521,2.308031 -1.722657,0.743035 -3.427365,1.528832 -5.077929,2.421044 -1.962017,0.997281 -3.772169,2.254041 -5.549095,3.544498 -1.871774,1.425372 -3.588562,3.042216 -5.284362,4.669449 -1.448866,1.304211 -2.729814,2.759641 -3.893563,4.319603 -1.199242,1.655929 -1.895726,3.561811 -2.204008,5.577101 -0.08333,0.54477 -0.120563,1.0956 -0.180846,1.64341 -0.151503,3.4281 0.658985,6.79769 1.730182,10.02876 0.880441,2.38608 1.83547,4.74373 2.775141,7.10688 0.878051,2.21942 1.69455,4.46248 2.496796,6.71018 0.672946,2.04701 1.421622,4.06291 2.37726,5.99521 0.738137,1.45477 1.682686,2.81332 2.917851,3.89306 0.345845,0.30232 0.719749,0.57095 1.079622,0.85642 2.37979,1.64789 4.875226,3.19205 7.556145,4.30111 1.970937,0.81535 4.022956,1.37163 6.07922,1.91814 5.045269,1.09785 10.197697,1.61045 15.326247,2.15355 3.95548,0.39287 7.91918,0.74685 11.8968,0.69511 1.89983,-0.057 3.79389,-0.23069 5.54429,-1.03189 0.97578,-0.44664 1.68814,-0.94894 2.58756,-1.52613 2.53469,-1.90625 4.52562,-4.39812 6.50731,-6.84704 1.37412,-1.71334 2.48307,-3.60258 3.52898,-5.52643 0.8981,-1.62784 1.81163,-3.24699 2.72161,-4.86817 1.15322,-2.15391 1.87462,-4.47712 2.44066,-6.8422 0.65645,-2.90254 0.78663,-5.88311 0.91103,-8.84563 0.0792,-3.27383 -0.2404,-6.53553 -0.52992,-9.79186 -0.21511,-1.89895 -0.35646,-3.816686 -0.71022,-5.697593 -0.21766,-1.157293 -0.39168,-1.704348 -0.70111,-2.835958 -0.57652,-1.543849 -1.1325,-3.176132 -2.08576,-4.543041 -0.50535,-0.724643 -0.85834,-1.008578 -1.49108,-1.625036 -0.78741,-0.682432 -1.66158,-1.246773 -2.53639,-1.80703 0,0 -3.54264,-1.374556 -3.54264,-1.374556 v 0 c 0.89062,0.545815 1.77799,1.098688 2.59693,1.750603 0.56951,0.522512 1.04411,0.909632 1.51403,1.526765 1.00939,1.325607 1.61597,2.949291 2.20765,4.484774 0.13124,0.460605 0.27689,0.91735 0.39373,1.381818 0.58487,2.324963 0.79163,4.730131 1.06994,7.104304 0.32396,3.23712 0.64078,6.48204 0.53524,9.74045 -0.0943,2.93821 -0.24142,5.8905 -0.90785,8.76503 -0.55015,2.32797 -1.27832,4.61788 -2.46427,6.70944 -0.90961,1.62439 -1.82122,3.24734 -2.71215,4.88231 -1.00862,1.91778 -2.11634,3.78144 -3.43814,5.50343 -1.88593,2.47393 -3.8459,4.94603 -6.40619,6.7617 -1.02223,0.64095 -1.45456,0.96741 -2.56629,1.44464 -1.72487,0.74044 -3.58822,0.88922 -5.44231,0.95329 -3.91881,0.0827 -7.82833,-0.24037 -11.72618,-0.62281 -5.13762,-0.505 -10.301888,-1.02212 -15.330797,-2.22843 -2.069221,-0.56841 -4.118557,-1.15017 -6.091327,-2.00938 -0.572262,-0.24923 -1.43306,-1.39047 -1.68397,-0.81894 -0.252534,0.57523 1.032325,0.74376 1.622684,0.95855 0.45992,0.16733 -0.815078,-0.542 -1.222618,-0.81299 -0.34694,-0.26577 -0.706861,-0.5154 -1.040823,-0.7973 -1.235528,-1.04293 -2.198053,-2.35398 -2.957703,-3.77234 -0.98117,-1.91642 -1.758699,-3.917 -2.424319,-5.96431 -0.791694,-2.26444 -1.637535,-4.50918 -2.526906,-6.73711 -0.904396,-2.37882 -1.87956,-4.72864 -2.800932,-7.10078 -1.103463,-3.18918 -2.054376,-6.48729 -1.83896,-9.90092 0.06607,-0.53222 0.109371,-1.06777 0.19821,-1.59667 0.327909,-1.95221 1.033735,-3.79021 2.221632,-5.381148 1.143585,-1.546286 2.424608,-2.972242 3.833093,-4.28362 1.671696,-1.625579 3.357438,-3.247929 5.240166,-4.631729 1.785728,-1.257501 3.581119,-2.514222 5.543695,-3.486867 1.666798,-0.853893 3.367474,-1.638509 5.084585,-2.385981 1.880741,-0.834059 3.767257,-1.666722 5.726597,-2.302055 2.025555,-0.667557 4.042483,-1.361323 6.103853,-1.914035 2.07311,-0.60256 4.16717,-1.152084 6.31505,-1.413741 0.478,-0.06855 1.01846,-0.156548 1.50381,-0.188013 0.83494,-0.05413 1.67359,0.04437 2.50699,0.07578 1.70613,0.125161 3.411,0.30516 5.09637,0.60216 0.71971,0.147161 1.37753,0.271013 2.08981,0.462894 1.95752,0.527344 3.83732,1.311778 5.70885,2.079262 1.94093,0.849191 3.85639,1.732251 5.74031,2.702941 0.87268,0.449644 1.72644,0.935657 2.60274,1.378183 0.22549,0.113872 0.457,0.215427 0.68549,0.323141 z" />
  </g>
</svg>
